# xmcd CD database file
#
# Track frame offsets:
#	300
#	13464
#	29719
#	42504
#	58980
#	70495
#	85421
#	101268
#	114612
#	128994
#	145893
#	162255
#	176775
#
# Disc length: 2535 seconds
#
# Revision: 0
# Processed by: cddbd v1.5.2PL0 Copyright (c) Steve Scherf et al.
# Submitted via: CDex 1.83
#
DISCID=ca09e30d
DTITLE=Romain Vuillemin - Swinging in Paris
DYEAR=2014
DGENRE=Jazz
TTITLE0=Swing 41
TTITLE1=Songe d'Automne
TTITLE2=Parlez moi d'Amour
TTITLE3=Three Little Words
TTITLE4=The world is waiting for the sunrise
TTITLE5=Tea for two
TTITLE6=Joseph Joseph
TTITLE7=Choti
TTITLE8=I love you
TTITLE9=Topsy
TTITLE10=Body and Soul
TTITLE11=Exactly like you
TTITLE12=Renouveau
EXTD=YEAR: 2014
EXTT0=
EXTT1=
EXTT2=
EXTT3=
EXTT4=
EXTT5=
EXTT6=
EXTT7=
EXTT8=
EXTT9=
EXTT10=
EXTT11=
EXTT12=
PLAYORDER=
